<svg xmlns="http://www.w3.org/2000/svg" viewBox="0 0 1920 1080"><defs><style>.cls-1{fill:#f7f7f7;}.cls-2,.cls-7{fill:gray;}.cls-3{fill:#4d4d4d;}.cls-4{fill:#b3b3b3;}.cls-5{fill:#333;}.cls-6{fill:#666;}.cls-7{font-size:2.92px;font-family:Bebas-Regular, Bebas;letter-spacing:0.02em;}.cls-8{letter-spacing:-0.05em;}.cls-9{letter-spacing:0.01em;}.cls-10{letter-spacing:0.01em;}</style></defs><g id="Layer_2" data-name="Layer 2"><path class="cls-1" d="M456.16,448.66c.12.51.87,1.73.48,1.84-2.43,2.93-5.85,4.13-10.22,4.95a20.17,20.17,0,0,0-5.52,2.8c.4-.4,1.12-.46,1.16-1.22.07-1.54.18-2.87.21-4.45.08-1.38-.32-3.56.94-3.93,3.07-1,3.13-2.79,2.62-2.31.33-.34-.54-1.7-.54-2.36.31-1,2-.55,3-.73-.08-.25,0-.7.21-.64,1.76.24,4,1.07,5.16.42.11.27.21.54.21.54l1.15.31A34.67,34.67,0,0,1,456.16,448.66Z"/></g><g id="Layer_3" data-name="Layer 3"><polygon class="cls-2" points="932.71 499.83 958.49 580.73 958.77 580.73 984.2 580.71 984.34 580.71 959.13 499.81 958.99 499.81 932.85 499.83 932.71 499.83"/><polygon class="cls-2" points="983.64 500.11 1009.4 580.94 1009.68 580.94 1034.86 580.99 1035 580.99 1009.67 500.11 1009.67 500.11 983.78 500.11 983.64 500.11"/><polygon class="cls-3" points="949.22 551.6 954.54 522.78 959.02 499.83 945.87 541.25 949.22 551.6"/><polygon class="cls-3" points="1000.15 551.6 1005.47 522.78 1009.95 499.83 996.8 541.25 1000.15 551.6"/><polygon class="cls-4" points="969.37 532.57 962.93 558.04 958.46 580.99 971.61 539.57 969.37 532.57"/><polygon class="cls-5" points="959.02 499.83 933.13 581.06 932.85 581.06 907.19 581 907.05 581 932.36 499.77 932.51 499.77 958.88 499.83 959.02 499.83"/><polygon class="cls-6" points="907.25 580.99 933.13 580.99 959.02 499.83 920.75 560.56 907.25 580.99"/><polygon class="cls-6" points="1009.95 500.11 984.25 580.75 983.98 580.75 958.66 580.74 958.52 580.74 983.66 500.1 983.8 500.1 1009.81 500.11 1009.95 500.11"/><polygon class="cls-5" points="958.46 580.71 984.2 580.71 1009.95 500.11 971.89 560.28 958.46 580.71"/><text class="cls-7" transform="matrix(0.4, -1.28, 0.95, 0.3, 906.6, 580.96)">ww<tspan class="cls-8" x="3.64" y="0">w</tspan><tspan class="cls-9" x="5.25" y="0">.cra</tspan><tspan x="9.79" y="0">f</tspan><tspan class="cls-10" x="10.95" y="0">ties.ro</tspan></text></g></svg>