<svg xmlns="http://www.w3.org/2000/svg" viewBox="0 0 1920 1080"><defs><style>.cls-1{fill:#f7f7f7;}.cls-2{fill:#f7931e;}.cls-3{fill:#dc1a27;}.cls-4{fill:#00b1eb;}.cls-5{fill:#0a8e54;}.cls-6{fill:#e2631e;}.cls-7{fill:#008fcc;}.cls-8{fill:#f9c300;}.cls-9{fill:#f31a2d;}.cls-10{fill:#0aaf54;}.cls-11{opacity:0.31;font-size:10.44px;fill:#333;font-family:Bebas-Regular, Bebas;letter-spacing:0.02em;}.cls-12{letter-spacing:-0.05em;}.cls-13{letter-spacing:0.01em;}.cls-14{letter-spacing:0.02em;}</style></defs><g id="Layer_2" data-name="Layer 2"><path class="cls-1" d="M456.16,448.66c.12.51.87,1.73.48,1.84-2.43,2.93-5.85,4.13-10.22,4.95a20.17,20.17,0,0,0-5.52,2.8c.4-.4,1.12-.46,1.16-1.22.07-1.54.18-2.87.21-4.45.08-1.38-.32-3.56.94-3.93,3.07-1,3.13-2.79,2.62-2.31.33-.34-.54-1.7-.54-2.36.31-1,2-.55,3-.73-.08-.25,0-.7.21-.64,1.76.24,4,1.07,5.16.42.11.27.21.54.21.54l1.15.31A34.67,34.67,0,0,1,456.16,448.66Z"/></g><g id="Layer_3" data-name="Layer 3"><polygon class="cls-2" points="752 426 844.12 715.08 845.12 715.08 936 715 936.5 715 846.39 425.92 845.88 425.92 752.5 426 752 426"/><polygon class="cls-3" points="846 426 753.5 716.27 752.49 716.27 660.79 716.04 660.28 716.04 750.76 425.77 751.26 425.77 845.49 426 846 426"/><polygon class="cls-4" points="934 427 1026.03 715.82 1027.03 715.82 1117.02 716 1117.51 716 1027 427 1027 427 934.5 427 934 427"/><polygon class="cls-5" points="1028 427 936.18 715.15 935.18 715.15 844.74 715.11 844.24 715.11 934.06 426.96 934.56 426.96 1027.5 427 1028 427"/><polygon class="cls-6" points="811 611 830 508 846 426 799 574 811 611"/><polygon class="cls-7" points="993 611 1012 508 1028 426 981 574 993 611"/><polygon class="cls-8" points="883 543 860 634 844 716 891 568 883 543"/><polygon class="cls-9" points="661 716 753.5 716 846 426 709.26 643 661 716"/><polygon class="cls-10" points="844 715 936 715 1028 427 892 642 844 715"/><text class="cls-11" transform="matrix(0.4, -1.28, 0.95, 0.3, 658.32, 713.84)">ww<tspan class="cls-12" x="12.99" y="0">w</tspan><tspan class="cls-13" x="18.76" y="0">.cra</tspan><tspan class="cls-14" x="34.97" y="0">f</tspan><tspan class="cls-13" x="39.13" y="0">ties.ro</tspan></text></g></svg>